# xmcd
#
# Track frame offsets:
#	150
#	24399
#	47472
#	90943
#	112477
#	134224
#	159898
#	178291
#	196939
#
# Disc length: 2954 seconds
#
# Revision: 3
# Processed by: cddbd v1.5.2PL0 Copyright (c) Steve Scherf et al.
# Submitted via: EZCDAudioConverter 8.0.2.1
#
DISCID=760b8809
DTITLE=Song Giang - Vol 03. Ru Ta Ngậm Ngùi
DYEAR=2007
DGENRE=Contemporary Pop
TTITLE0=Cứ lừa dối đi
TTITLE1=Trái tim tội lỗi
TTITLE2=Nhớ, dĩ vãng, nuối tiếc
TTITLE3=Chỉ còn ánh mắt
TTITLE4=Lệ hoang
TTITLE5=Ru Ta Ngậm Ngùi
TTITLE6=Em hãy ngủ đi
TTITLE7=Xin một ngày mai có nhau
TTITLE8=Bay đi cánh chim biển
EXTD=
EXTT0=
EXTT1=
EXTT2=
EXTT3=
EXTT4=
EXTT5=
EXTT6=
EXTT7=
EXTT8=
PLAYORDER=
